<?xml version="1.0" encoding="UTF-8"?>
<svg width="54px" height="36px" viewBox="0 0 54 36" version="1.1" xmlns="http://www.w3.org/2000/svg" xmlns:xlink="http://www.w3.org/1999/xlink">
    <!-- Generator: sketchtool 49.3 (51167) - http://www.bohemiancoding.com/sketch -->
    <title>D9ACF9D5-C270-42D2-A485-F7F57FA4E748</title>
    <desc>Created with sketchtool.</desc>
    <defs></defs>
    <g id="레퍼런스" stroke="none" stroke-width="1" fill="none" fill-rule="evenodd">
        <g id="Desktop-HD" transform="translate(-524.000000, -306.000000)" fill="#FFFFFF">
            <g id="Main" transform="translate(480.000000, 0.000000)">
                <g id="정보" transform="translate(39.000000, 226.000000)">
                    <g id="미세먼지" transform="translate(5.000000, 80.000000)">
                        <g id="Group-2" transform="translate(5.000000, 8.000000)">
                            <circle id="Oval-2-Copy-6" cx="2" cy="2" r="2"></circle>
                            <circle id="Oval-2-Copy-7" cx="12" cy="2" r="2"></circle>
                            <circle id="Oval-2-Copy-8" cx="22" cy="2" r="2"></circle>
                            <circle id="Oval-2-Copy-9" cx="32" cy="2" r="2"></circle>
                            <circle id="Oval-2-Copy-10" cx="42" cy="2" r="2"></circle>
                        </g>
                        <g id="Group-2-Copy" transform="translate(5.000000, 24.000000)">
                            <circle id="Oval-2-Copy-6" cx="2" cy="2" r="2"></circle>
                            <circle id="Oval-2-Copy-7" cx="12" cy="2" r="2"></circle>
                            <circle id="Oval-2-Copy-8" cx="22" cy="2" r="2"></circle>
                            <circle id="Oval-2-Copy-9" cx="32" cy="2" r="2"></circle>
                            <circle id="Oval-2-Copy-10" cx="42" cy="2" r="2"></circle>
                        </g>
                        <g id="Group-3">
                            <circle id="Oval-2" cx="2" cy="2" r="2"></circle>
                            <circle id="Oval-2-Copy" cx="12" cy="2" r="2"></circle>
                            <circle id="Oval-2-Copy-2" cx="22" cy="2" r="2"></circle>
                            <circle id="Oval-2-Copy-3" cx="32" cy="2" r="2"></circle>
                            <circle id="Oval-2-Copy-4" cx="42" cy="2" r="2"></circle>
                            <circle id="Oval-2-Copy-5" cx="52" cy="2" r="2"></circle>
                        </g>
                        <g id="Group-3-Copy" transform="translate(0.000000, 16.000000)">
                            <circle id="Oval-2" cx="2" cy="2" r="2"></circle>
                            <circle id="Oval-2-Copy" cx="12" cy="2" r="2"></circle>
                            <circle id="Oval-2-Copy-2" cx="22" cy="2" r="2"></circle>
                            <circle id="Oval-2-Copy-3" cx="32" cy="2" r="2"></circle>
                            <circle id="Oval-2-Copy-4" cx="42" cy="2" r="2"></circle>
                            <circle id="Oval-2-Copy-5" cx="52" cy="2" r="2"></circle>
                        </g>
                        <g id="Group-3-Copy-2" transform="translate(0.000000, 32.000000)">
                            <circle id="Oval-2" cx="2" cy="2" r="2"></circle>
                            <circle id="Oval-2-Copy" cx="12" cy="2" r="2"></circle>
                            <circle id="Oval-2-Copy-2" cx="22" cy="2" r="2"></circle>
                            <circle id="Oval-2-Copy-3" cx="32" cy="2" r="2"></circle>
                            <circle id="Oval-2-Copy-4" cx="42" cy="2" r="2"></circle>
                            <circle id="Oval-2-Copy-5" cx="52" cy="2" r="2"></circle>
                        </g>
                    </g>
                </g>
            </g>
        </g>
    </g>
</svg>